<svg xmlns="http://www.w3.org/2000/svg" width="67" height="89" viewBox="0 0 67 89">
  <g id="Group_186" data-name="Group 186" transform="translate(-1385 -212)">
    <text id="Notes" transform="translate(1399.443 297)" fill="#2f3a50" font-size="14" font-family="SegoeUI, Segoe UI"><tspan x="0" y="0">Notes</tspan></text>
    <g id="Group_29" data-name="Group 29" transform="translate(-265.557 4.548)">
      <circle id="Ellipse_4" data-name="Ellipse 4" cx="33.5" cy="33.5" r="33.5" transform="translate(1650.557 207.452)" fill="#2f3a50"/>
      <path id="solid_list" data-name="solid list" d="M3.873,63.49H.775A.775.775,0,0,0,0,64.265v3.1a.775.775,0,0,0,.775.775h3.1a.775.775,0,0,0,.775-.775v-3.1A.775.775,0,0,0,3.873,63.49Zm0-15.49H.775A.775.775,0,0,0,0,48.775v3.1a.774.774,0,0,0,.775.775h3.1a.774.774,0,0,0,.775-.775v-3.1A.775.775,0,0,0,3.873,48Zm0,7.745H.775A.775.775,0,0,0,0,56.52v3.1a.775.775,0,0,0,.775.775h3.1a.775.775,0,0,0,.775-.775v-3.1A.775.775,0,0,0,3.873,55.745Zm20.137,8.52H8.52a.775.775,0,0,0-.775.775v1.549a.774.774,0,0,0,.775.774H24.01a.774.774,0,0,0,.775-.774V65.039A.775.775,0,0,0,24.01,64.265Zm0-15.49H8.52a.775.775,0,0,0-.775.775V51.1a.774.774,0,0,0,.775.775H24.01a.775.775,0,0,0,.775-.775V49.549A.775.775,0,0,0,24.01,48.775Zm0,7.745H8.52a.775.775,0,0,0-.775.775v1.549a.775.775,0,0,0,.775.775H24.01a.775.775,0,0,0,.775-.775V57.294A.775.775,0,0,0,24.01,56.52Z" transform="translate(1671.664 182.884)" fill="#fff"/>
    </g>
  </g>
</svg>
