<svg xmlns="http://www.w3.org/2000/svg" width="67" height="89" viewBox="0 0 67 89">
  <g id="Group_187" data-name="Group 187" transform="translate(-1136 -212)">
    <g id="Group_183" data-name="Group 183">
      <text id="Profile" transform="translate(1150 297)" fill="#2f3a50" font-size="14" font-family="SegoeUI, Segoe UI"><tspan x="0" y="0">Profile</tspan></text>
      <g id="Group_26" data-name="Group 26" transform="translate(-231 5)">
        <circle id="Ellipse_1" data-name="Ellipse 1" cx="33.5" cy="33.5" r="33.5" transform="translate(1367 207)" fill="#2f3a50"/>
      </g>
    </g>
    <path id="solid_city" data-name="solid city" d="M33.486,10.437H26.093V1.3a1.3,1.3,0,0,0-1.3-1.3H16.961a1.3,1.3,0,0,0-1.3,1.3V5.219H12.177V.87a.87.87,0,0,0-.87-.87h-.87a.87.87,0,0,0-.87.87V5.219H6.088V.87A.87.87,0,0,0,5.219,0h-.87a.87.87,0,0,0-.87.87V5.219H1.3A1.3,1.3,0,0,0,0,6.523v19.57a1.74,1.74,0,0,0,1.74,1.74H33.051a1.74,1.74,0,0,0,1.74-1.74V11.742A1.3,1.3,0,0,0,33.486,10.437ZM6.958,21.962a.652.652,0,0,1-.652.652H4.131a.652.652,0,0,1-.652-.652V19.787a.652.652,0,0,1,.652-.652H6.306a.652.652,0,0,1,.652.652Zm0-5.219a.652.652,0,0,1-.652.652H4.131a.652.652,0,0,1-.652-.652V14.569a.652.652,0,0,1,.652-.652H6.306a.652.652,0,0,1,.652.652Zm0-5.219a.652.652,0,0,1-.652.652H4.131a.652.652,0,0,1-.652-.652V9.35A.652.652,0,0,1,4.131,8.7H6.306a.652.652,0,0,1,.652.652Zm6.958,10.437a.652.652,0,0,1-.652.652H11.09a.652.652,0,0,1-.652-.652V19.787a.652.652,0,0,1,.652-.652h2.174a.652.652,0,0,1,.652.652Zm0-5.219a.652.652,0,0,1-.652.652H11.09a.652.652,0,0,1-.652-.652V14.569a.652.652,0,0,1,.652-.652h2.174a.652.652,0,0,1,.652.652Zm0-5.219a.652.652,0,0,1-.652.652H11.09a.652.652,0,0,1-.652-.652V9.35A.652.652,0,0,1,11.09,8.7h2.174a.652.652,0,0,1,.652.652Zm8.7,5.219a.652.652,0,0,1-.652.652H19.787a.652.652,0,0,1-.652-.652V14.569a.652.652,0,0,1,.652-.652h2.174a.652.652,0,0,1,.652.652Zm0-5.219a.652.652,0,0,1-.652.652H19.787a.652.652,0,0,1-.652-.652V9.35a.652.652,0,0,1,.652-.652h2.174a.652.652,0,0,1,.652.652Zm0-5.219a.652.652,0,0,1-.652.652H19.787a.652.652,0,0,1-.652-.652V4.131a.652.652,0,0,1,.652-.652h2.174a.652.652,0,0,1,.652.652Zm8.7,15.656a.652.652,0,0,1-.652.652H28.485a.652.652,0,0,1-.652-.652V19.787a.652.652,0,0,1,.652-.652H30.66a.652.652,0,0,1,.652.652Zm0-5.219a.652.652,0,0,1-.652.652H28.485a.652.652,0,0,1-.652-.652V14.569a.652.652,0,0,1,.652-.652H30.66a.652.652,0,0,1,.652.652Z" transform="translate(1152.104 232.552)" fill="#fff"/>
  </g>
</svg>
