<svg xmlns="http://www.w3.org/2000/svg" width="67" height="89" viewBox="0 0 67 89">
  <g id="Group_184" data-name="Group 184" transform="translate(-1219 -212)">
    <text id="Tools" transform="translate(1236 297)" fill="#2f3a50" font-size="14" font-family="SegoeUI, Segoe UI"><tspan x="0" y="0">Tools</tspan></text>
    <g id="Group_27" data-name="Group 27" transform="translate(-247 2)">
      <circle id="Ellipse_2" data-name="Ellipse 2" cx="33.5" cy="33.5" r="33.5" transform="translate(1466 210)" fill="#2f3a50"/>
      <path id="ic_settings_24px" d="M27.506,18.148a11.46,11.46,0,0,0,.1-1.441,11.46,11.46,0,0,0-.1-1.441l3.1-2.427a.742.742,0,0,0,.176-.941L27.844,6.809a.739.739,0,0,0-.9-.324L23.285,7.956A10.745,10.745,0,0,0,20.8,6.515l-.559-3.9A.717.717,0,0,0,19.52,2H13.638a.717.717,0,0,0-.721.618l-.559,3.9A11.3,11.3,0,0,0,9.873,7.956L6.211,6.485a.717.717,0,0,0-.9.324L2.373,11.9a.725.725,0,0,0,.176.941l3.1,2.427a11.663,11.663,0,0,0-.1,1.441,11.663,11.663,0,0,0,.1,1.441l-3.1,2.427a.742.742,0,0,0-.176.941L5.314,26.6a.739.739,0,0,0,.9.324l3.662-1.471A10.745,10.745,0,0,0,12.358,26.9l.559,3.9a.717.717,0,0,0,.721.618H19.52a.717.717,0,0,0,.721-.618l.559-3.9a11.3,11.3,0,0,0,2.485-1.441l3.662,1.471a.717.717,0,0,0,.9-.324l2.941-5.088a.742.742,0,0,0-.176-.941ZM16.579,21.854a5.147,5.147,0,1,1,5.147-5.147A5.153,5.153,0,0,1,16.579,21.854Z" transform="translate(1482.924 226.794)" fill="#fff"/>
    </g>
  </g>
</svg>
