<svg xmlns="http://www.w3.org/2000/svg" width="38.098" height="38.098" viewBox="0 0 38.098 38.098">
  <path id="ic_help_outline_24px" d="M19.144,32.478h3.81v-3.81h-3.81ZM21.049,2A19.049,19.049,0,1,0,40.1,21.049,19.056,19.056,0,0,0,21.049,2Zm0,34.288A15.239,15.239,0,1,1,36.288,21.049,15.259,15.259,0,0,1,21.049,36.288Zm0-26.669a7.618,7.618,0,0,0-7.62,7.62h3.81a3.81,3.81,0,0,1,7.62,0c0,3.81-5.715,3.334-5.715,9.525h3.81c0-4.286,5.715-4.762,5.715-9.525A7.618,7.618,0,0,0,21.049,9.62Z" transform="translate(-2 -2)" fill="#26a9e0"/>
</svg>
